# xmcd CD database file
#
# Track frame offsets:
#	150
#	14799
#	31488
#	48879
#	67722
#	90231
#	108649
#	125733
#	138014
#	149811
#	167976
#	185187
#
# Disc length: 2843 seconds
#
# Revision: 0
# Processed by: cddbd v1.5.2PL0 Copyright (c) Steve Scherf et al.
# Submitted via: CDex 1.75
#
DISCID=af0b190c
DTITLE=The Steeldrivers - Reckless
DYEAR=2010
DGENRE=Country
TTITLE0=Guitars, Whiskey, Guns and Knives
TTITLE1=Good Corn Liquor
TTITLE2=Where Rainbows Never Die
TTITLE3=The Price
TTITLE4=Can You Run
TTITLE5=Peacemaker
TTITLE6=You Put the Hurt on Me
TTITLE7=Midnight on the Mountain
TTITLE8=Guitars, Whiskey, Guns and Knives
TTITLE9=Angel of the Night
TTITLE10=Higher Than the Wall
TTITLE11=Ghosts of Mississippi
EXTD=YEAR: 2010
EXTT0=
EXTT1=
EXTT2=
EXTT3=
EXTT4=
EXTT5=
EXTT6=
EXTT7=
EXTT8=
EXTT9=
EXTT10=
EXTT11=
PLAYORDER=
